#!OML:ASF H:\Terrain\Patient Classification 1\Walking\liu\liu.ASF
:FULLY-SPECIFIED
:DEGREES
177
root 8.84124 16.3474 -7.71143 7.11437 -6.79496 -4.49238
lowerback -4.5477 2.85616 1.2627
upperback -0.948904 3.68696 3.43666
thorax 1.42252 1.84434 3.03492
lowerneck -20.7053 -4.82122 -13.0461
upperneck 20.3173 -5.57719 12.1446
head 10.6832 -2.16232 5.74117
rclavicle -2.21396e-014 -2.78299e-014
rhumerus -26.9408 22.8749 -85.6113
rradius 48.2078
rwrist -20.9265
rhand -31.7611 -23.7676
rfingers 7.12502
rthumb -5.01802 -53.6881
lclavicle -2.21396e-014 -2.78299e-014
lhumerus -55.7422 21.3186 58.2193
lradius 8.50659
lwrist -38.618
lhand -7.02986 -22.8704
lfingers 7.12502
lthumb 18.8421 6.23706
rfemur 17.3115 2.69729 25.3641
rtibia 14.5002
rfoot 7.50572 6.69296
rtoes -14.3713
lfemur -41.7072 6.85375 -18.4616
ltibia 34.4641
lfoot -2.34065 5.75191
ltoes -7.15135
178
root 8.86337 16.3407 -7.50275 7.03846 -6.73295 -4.58396
lowerback -4.35597 2.92822 1.30852
upperback -1.1464 3.79429 3.49432
thorax 1.10679 1.90035 3.05565
lowerneck -20.4464 -4.89595 -13.1893
upperneck 20.2475 -5.68358 12.2204
head 10.6321 -2.22128 5.77456
rclavicle -4.4155e-014 1.74931e-014
rhumerus -27.6926 22.0767 -85.8661
rradius 47.4566
rwrist -20.7503
rhand -32.1237 -24.717
rfingers 7.12502
rthumb -5.36819 -54.629
lclavicle -4.4155e-014 1.74931e-014
lhumerus -55.6824 21.6341 58.0479
lradius 8.59759
lwrist -38.9471
lhand -6.78367 -22.734
lfingers 7.12502
lthumb 19.0789 6.35021
rfemur 16.2121 2.13555 25.1219
rtibia 17.5857
rfoot 8.9405 6.08855
rtoes -13.7838
lfemur -41.7234 7.3467 -18.7451
ltibia 35.7601
lfoot -2.21237 5.03126
ltoes -5.59054
179
root 8.88402 16.3346 -7.30669 7.0891 -6.53189 -4.61093
lowerback -4.36907 2.96294 1.35775
upperback -1.25754 3.84238 3.47482
thorax 1.00232 1.92523 3.00712
lowerneck -20.3331 -4.94965 -13.2734
upperneck 20.2424 -5.7754 12.3319
head 10.6295 -2.26072 5.81667
rclavicle -6.41081e-014 -2.38542e-014
rhumerus -28.2779 21.3217 -86.0658
rradius 46.7984
rwrist -20.7649
rhand -33.2466 -26.6862
rfingers 7.12502
rthumb -6.45232 -56.5679
lclavicle -6.41081e-014 -2.38542e-014
lhumerus -55.3446 21.9849 57.8709
lradius 8.68879
lwrist -38.9979
lhand -7.15684 -23.1255
lfingers 7.12502
lthumb 18.72 5.99369
rfemur 14.839 1.09155 24.7779
rtibia 20.7746
rfoot 10.5628 5.77852
rtoes -12.5135
lfemur -41.7874 7.77127 -19.1645
ltibia 36.83
lfoot -2.28224 4.23378
ltoes -4.82669
180
root 8.91461 16.3286 -7.10874 7.00294 -6.33977 -4.41221
lowerback -4.51115 2.91329 1.35533
upperback -1.1231 3.76742 3.37371
thorax 1.22973 1.88617 2.91399
lowerneck -20.7305 -5.00464 -13.2833
upperneck 20.38 -5.81805 12.3631
head 10.7627 -2.26587 5.82933
rclavicle -1.28465e-014 -3.89618e-014
rhumerus -28.5503 20.8308 -86.1586
rradius 46.1211
rwrist -20.7293
rhand -34.4057 -28.8879
rfingers 7.12502
rthumb -7.57115 -58.7324
lclavicle -1.28465e-014 -3.89618e-014
lhumerus -54.7379 22.6995 57.658
lradius 8.72995
lwrist -39.1824
lhand -7.10748 -23.331
lfingers 7.12502
lthumb 18.7675 5.78366
rfemur 13.4433 -0.284542 24.0725
rtibia 24.2968
rfoot 11.8702 6.16442
rtoes -12.4271
lfemur -41.4606 7.75011 -19.6322
ltibia 37.5746
lfoot -2.80942 3.672
ltoes -4.58986
181
root 8.94988 16.3361 -6.90433 6.73287 -6.49267 -3.71059
lowerback -4.56124 2.87711 0.918336
upperback -0.921531 3.73655 3.061
thorax 1.45936 1.86786 2.84407
lowerneck -21.3584 -5.04759 -12.9829
upperneck 20.5696 -5.89264 12.2778
head 10.9494 -2.26706 5.74097
rclavicle -1.46852e-014 -1.82882e-014
rhumerus -28.7393 20.4869 -86.5015
rradius 45.3447
rwrist -20.8102
rhand -34.893 -30.0328
rfingers 7.12502
rthumb -8.04154 -59.8598
lclavicle -1.46852e-014 -1.82882e-014
lhumerus -54.1886 23.4819 57.1935
lradius 8.8001
lwrist -39.3909
lhand -6.56743 -23.4256
lfingers 7.12502
lthumb 19.2868 5.63798
rfemur 12.1043 -1.11426 22.8099
rtibia 27.994
rfoot 12.6433 6.56992
rtoes -13.438
lfemur -40.6513 7.68576 -20.5079
ltibia 37.987
lfoot -3.5245 3.47093
ltoes -4.29459
182
root 8.97968 16.3542 -6.7117 6.50618 -6.90388 -2.69216
lowerback -4.42442 2.91266 0.00989693
upperback -0.915606 3.83636 2.71132
thorax 1.34928 1.91613 2.98775
lowerneck -21.4412 -4.98377 -12.7452
upperneck 20.5586 -5.86128 12.2394
head 10.9469 -2.23536 5.69019
rclavicle 2.2239e-014 2.14687e-014
rhumerus -29.1367 20.0961 -86.9237
rradius 44.3321
rwrist -20.9337
rhand -34.9466 -29.7203
rfingers 7.12502
rthumb -8.09327 -59.5453
lclavicle 2.2239e-014 2.14687e-014
lhumerus -53.9732 24.0811 56.6738
lradius 8.93575
lwrist -39.9114
lhand -6.8241 -24.0328
lfingers 7.12502
lthumb 19.04 5.05523
rfemur 10.4621 -1.32739 21.3391
rtibia 31.8467
rfoot 13.4254 6.13226
rtoes -13.6101
lfemur -39.7007 7.6963 -21.6624
ltibia 38.0424
lfoot -4.15412 3.62011
ltoes -3.28416
183
root 9.00718 16.3835 -6.52199 6.34703 -7.21248 -1.83184
lowerback -4.17528 2.9705 -0.838021
upperback -1.06166 3.96005 2.5502
thorax 1.0076 1.98166 3.28013
lowerneck -21.3116 -4.93885 -12.8409
upperneck 20.5918 -5.75911 12.1441
head 10.9189 -2.21181 5.68789
rclavicle 4.08006e-014 2.14687e-014
rhumerus -29.7991 19.6701 -87.0845
rradius 43.2901
rwrist -21.0326
rhand -34.7454 -28.9901
rfingers 7.12502
rthumb -7.89904 -58.8225
lclavicle 4.08006e-014 2.14687e-014
lhumerus -54.0562 24.6515 56.4231
lradius 9.29583
lwrist -40.7329
lhand -7.40126 -24.6652
lfingers 7.12502
lthumb 18.4849 4.47649
rfemur 8.6249 -1.57802 20.0832
rtibia 35.8531
rfoot 14.37 5.17605
rtoes -13.1772
lfemur -38.6612 7.63632 -22.6527
ltibia 37.8093
lfoot -4.73587 3.81221
ltoes -3.49492
184
root 9.0362 16.4214 -6.32397 6.17886 -7.37105 -0.972598
lowerback -4.06926 2.92193 -1.66241
upperback -1.14822 3.93298 2.43637
thorax 0.813234 1.97192 3.6127
lowerneck -21.5763 -4.92717 -12.9765
upperneck 20.9405 -5.65164 11.9909
head 11.0805 -2.18591 5.6842
rclavicle 3.05756e-014 -3.18055e-015
rhumerus -30.4622 19.4475 -87.1778
rradius 42.4737
rwrist -21.1579
rhand -34.3972 -28.8143
rfingers 7.12502
rthumb -7.56295 -58.6591
lclavicle 3.05756e-014 -3.18055e-015
lhumerus -54.1779 25.4457 56.1484
lradius 9.70159
lwrist -41.5077
lhand -7.68315 -25.1804
lfingers 7.12502
lthumb 18.2137 3.9869
rfemur 6.85868 -1.99061 18.8352
rtibia 39.8503
rfoot 15.0125 4.22627
rtoes -13.3387
lfemur -37.4842 7.62618 -23.6963
ltibia 37.3865
lfoot -5.51236 3.73625
ltoes -4.11447
185
root 9.06883 16.4498 -6.13156 6.02647 -7.43477 -0.0804916
lowerback -4.14059 2.79005 -2.36307
upperback -1.08397 3.78932 2.19449
thorax 0.900402 1.89736 3.75649
lowerneck -21.7291 -4.87478 -13.1363
upperneck 20.9107 -5.56394 12.2303
head 11.0988 -2.12639 5.81843
rclavicle 3.516e-014 -1.59028e-014
rhumerus -30.8667 19.2079 -87.3766
rradius 41.619
rwrist -21.0921
rhand -34.1529 -27.855
rfingers 7.12502
rthumb -7.32712 -57.7082
lclavicle 3.516e-014 -1.59028e-014
lhumerus -54.0187 26.2891 55.6101
lradius 10.1317
lwrist -42.3222
lhand -7.7617 -25.7529
lfingers 7.12502
lthumb 18.1381 3.42138
rfemur 5.06744 -2.55593 17.5668
rtibia 43.7349
rfoot 15.4522 3.60638
rtoes -14.0413
lfemur -36.3733 7.68852 -24.8242
ltibia 36.903
lfoot -6.2337 3.57936
ltoes -3.45492
